<svg xmlns="http://www.w3.org/2000/svg" version="1.1" xmlns:xlink="http://www.w3.org/1999/xlink" xmlns:svgjs="http://svgjs.dev/svgjs" width="1000" height="1000" viewBox="0 0 1000 1000"><rect width="1000" height="1000" fill="#31c48d"></rect><g transform="matrix(0.7,0,0,0.7,150.09564742708812,111.11514170040488)"><svg viewBox="0 0 222 247" data-background-color="#31c48d" preserveAspectRatio="xMidYMid meet" height="1112" width="1000" xmlns="http://www.w3.org/2000/svg" xmlns:xlink="http://www.w3.org/1999/xlink"><g id="tight-bounds" transform="matrix(1,0,0,1,-0.030333898305087814,-0.09999999999999432)"><svg viewBox="0 0 222.06066779661018 247.2" height="247.2" width="222.06066779661018"><g><svg viewBox="0 0 222.06066779661018 247.2" height="247.2" width="222.06066779661018"><g><svg viewBox="0 0 222.06066779661018 247.2" height="247.2" width="222.06066779661018"><g id="textblocktransform"><svg viewBox="0 0 222.06066779661018 247.2" height="247.2" width="222.06066779661018" id="textblock"><g><svg viewBox="0 0 222.06066779661018 247.2" height="247.2" width="222.06066779661018"><rect width="222.06066779661018" height="247.2" x="0" y="0" opacity="1" fill="#ffffff" data-fill-palette-color="tertiary"></rect><g transform="matrix(1,0,0,1,23.607599999999998,23.607599999999998)"><svg width="174.8454677966102" viewBox="3 -35.400001525878906 30.950000762939453 35.400001525878906" height="199.9848" data-palette-color="#31c48d"><path d="M11 0L4 0 4-27.2 3-32.25 4-35.4 11-35.4 11-29.4 10.5-19.95 14.5-19.95 22.55-35.4 30.5-35.4 30.5-32.4 20.6-18.35 29-7.95 33.95-3 33.95 0 24.7 0 15.6-14.25 11-13.75 11-6 11.5-3 11 0Z" opacity="1" transform="matrix(1,0,0,1,0,0)" fill="#31c48d" class="undefined-text-0" data-fill-palette-color="quaternary" id="text-0"></path></svg></g></svg></g></svg></g></svg></g><g></g></svg></g><defs></defs></svg><rect width="222.06066779661018" height="247.2" fill="none" stroke="none" visibility="hidden"></rect></g></svg></g></svg>